<svg width="13" height="15" viewBox="0 0 13 15" fill="none" xmlns="http://www.w3.org/2000/svg">
<path d="M0 3.16666C0 2.37222 0.65 1.72222 1.44444 1.72222H11.5556C11.9386 1.72222 12.306 1.8744 12.5769 2.14528C12.8478 2.41617 13 2.78357 13 3.16666V13.2778C13 13.6609 12.8478 14.0283 12.5769 14.2991C12.306 14.57 11.9386 14.7222 11.5556 14.7222H1.44444C1.06135 14.7222 0.693954 14.57 0.423068 14.2991C0.152182 14.0283 0 13.6609 0 13.2778V3.16666ZM1.44444 4.6111V13.2778H11.5556V4.6111H1.44444ZM2.88889 0.277771H4.33333V1.72222H2.88889V0.277771ZM8.66667 0.277771H10.1111V1.72222H8.66667V0.277771ZM2.88889 6.77777H4.33333V8.22222H2.88889V6.77777ZM2.88889 9.66666H4.33333V11.1111H2.88889V9.66666ZM5.77778 6.77777H7.22222V8.22222H5.77778V6.77777ZM5.77778 9.66666H7.22222V11.1111H5.77778V9.66666ZM8.66667 6.77777H10.1111V8.22222H8.66667V6.77777ZM8.66667 9.66666H10.1111V11.1111H8.66667V9.66666Z" fill="black"/>
</svg>
