<svg width="15" height="13" viewBox="0 0 15 13" fill="none" xmlns="http://www.w3.org/2000/svg">
<path d="M13.5 12.5C13.8978 12.5 14.2794 12.342 14.5607 12.0607C14.842 11.7794 15 11.3978 15 11V2C15 1.60218 14.842 1.22064 14.5607 0.939341C14.2794 0.658035 13.8978 0.5 13.5 0.5H1.5C1.10218 0.5 0.720644 0.658035 0.43934 0.939341C0.158035 1.22064 0 1.60218 0 2V11C0 11.825 0.675 12.5 1.5 12.5H13.5ZM10.2225 5.675L15 2V3.5L11.16 6.425L15 9.5V11L7.5 5L0 11V9.5L3.84 6.425L0 3.5V2L4.7775 5.675L7.5 3.5L10.2225 5.675Z" fill="black"/>
</svg>
