<svg width="16" height="17" viewBox="0 0 16 17" fill="none" xmlns="http://www.w3.org/2000/svg">
<path d="M4 4.5C4 3.43913 4.42143 2.42172 5.17157 1.67157C5.92172 0.921427 6.93913 0.5 8 0.5C9.06087 0.5 10.0783 0.921427 10.8284 1.67157C11.5786 2.42172 12 3.43913 12 4.5V6.1C12 7.16087 11.5786 8.17828 10.8284 8.92843C10.0783 9.67857 9.06087 10.1 8 10.1C6.93913 10.1 5.92172 9.67857 5.17157 8.92843C4.42143 8.17828 4 7.16087 4 6.1V4.5ZM0 13.844C2.43081 12.436 5.19088 11.6963 8 11.7C10.912 11.7 13.648 12.476 16 13.844V16.5H0V13.844Z" fill="black"/>
</svg>
