<svg width="13" height="13" viewBox="0 0 13 13" fill="none" xmlns="http://www.w3.org/2000/svg">
<path d="M13 11.9275V12.35C13 12.5224 12.9315 12.6877 12.8096 12.8096C12.6877 12.9315 12.5224 13 12.35 13H11.05C8.11936 13 5.30875 11.8358 3.23647 9.76353C1.16419 7.69125 0 4.88064 0 1.95L0 0.65C0 0.477609 0.068482 0.312279 0.190381 0.190381C0.312279 0.068482 0.477609 0 0.65 0L3.25 0C3.42239 0 3.58772 0.068482 3.70962 0.190381C3.83152 0.312279 3.9 0.477609 3.9 0.65V3.25C3.9 3.614 3.6985 4.1015 3.445 4.355L2.054 5.746C3.042 8.086 4.914 9.958 7.254 10.946L8.632 9.568C8.892 9.308 9.3795 9.1065 9.737 9.1065H12.35C12.5213 9.10821 12.6849 9.17745 12.8054 9.29916C12.9259 9.42088 12.9935 9.58523 12.9935 9.7565V11.934L13 11.9275Z" fill="black"/>
</svg>
