<svg width="13" height="15" viewBox="0 0 13 15" fill="none" xmlns="http://www.w3.org/2000/svg">
<path d="M4.35475 6.10006C3.5974 6.10006 2.87108 5.80506 2.33555 5.27997C1.80003 4.75487 1.49918 4.04268 1.49918 3.30008C1.49918 2.55748 1.80003 1.8453 2.33555 1.3202C2.87108 0.7951 3.5974 0.500103 4.35475 0.500103C5.11209 0.500103 5.83842 0.7951 6.37395 1.3202C6.90947 1.8453 7.21032 2.55748 7.21032 3.30008C7.21032 4.04268 6.90947 4.75487 6.37395 5.27997C5.83842 5.80506 5.11209 6.10006 4.35475 6.10006ZM4.35475 6.80006C5.88962 6.80006 7.3531 7.08005 8.7095 7.56305L7.92422 11.7H7.03185L6.49643 14.5H2.21307L1.67765 11.7H0.785283L0 7.56305C1.39542 7.06283 2.86901 6.80465 4.35475 6.80006ZM10.2872 6.91906C11.2295 7.04505 12.1362 7.25505 13 7.56305L12.2076 11.7H11.3152L10.7798 14.5H7.95277L8.21691 13.1H9.10928L10.2872 6.91906ZM8.63811 0.500103C9.05599 0.49659 9.46956 0.583051 9.84963 0.753384C10.2297 0.923717 10.567 1.17377 10.8378 1.4859C11.1085 1.79802 11.3061 2.16461 11.4166 2.55979C11.5271 2.95497 11.5477 3.36911 11.4771 3.77298C11.4065 4.17684 11.2464 4.5606 11.008 4.89715C10.7696 5.23371 10.4588 5.51486 10.0975 5.72076C9.73624 5.92667 9.33326 6.05231 8.91703 6.08882C8.5008 6.12533 8.08147 6.07182 7.68863 5.93206C8.30546 5.18822 8.64219 4.25878 8.64219 3.30008C8.64219 2.34139 8.30546 1.41194 7.68863 0.668102C7.99561 0.570102 8.30258 0.500103 8.63811 0.500103Z" fill="black"/>
</svg>
