<svg width="13" height="16" viewBox="0 0 13 16" fill="none" xmlns="http://www.w3.org/2000/svg">
<path d="M0 3.66666C0 2.87222 0.65 2.22222 1.44444 2.22222H11.5556C11.9386 2.22222 12.306 2.3744 12.5769 2.64528C12.8478 2.91617 13 3.28357 13 3.66666V13.7778C13 14.1609 12.8478 14.5283 12.5769 14.7991C12.306 15.07 11.9386 15.2222 11.5556 15.2222H1.44444C1.06135 15.2222 0.693954 15.07 0.423068 14.7991C0.152182 14.5283 0 14.1609 0 13.7778V3.66666ZM1.44444 5.1111V13.7778H11.5556V5.1111H1.44444ZM2.88889 0.777771H4.33333V2.22222H2.88889V0.777771ZM8.66667 0.777771H10.1111V2.22222H8.66667V0.777771ZM2.88889 7.27777H4.33333V8.72222H2.88889V7.27777ZM2.88889 10.1667H4.33333V11.6111H2.88889V10.1667ZM5.77778 7.27777H7.22222V8.72222H5.77778V7.27777ZM5.77778 10.1667H7.22222V11.6111H5.77778V10.1667ZM8.66667 7.27777H10.1111V8.72222H8.66667V7.27777ZM8.66667 10.1667H10.1111V11.6111H8.66667V10.1667Z" fill="#141312"/>
</svg>
