<svg width="16" height="16" viewBox="0 0 16 16" fill="none" xmlns="http://www.w3.org/2000/svg">
<path d="M8.0837 1.33337C8.54464 1.33337 8.91704 1.70655 8.91704 2.16671V3.09587C8.9587 3.10134 8.99777 3.10733 9.03943 3.11332C9.31547 3.15447 10.1384 3.28702 10.4769 3.3727C10.8988 3.48572 11.1931 3.94014 11.0785 4.38546C10.9665 4.83077 10.5134 5.1016 10.0655 4.98962C9.82329 4.90369 9.08631 4.80473 8.79464 4.76306C7.9587 4.63806 7.24256 4.70056 6.75037 4.88806C6.27433 5.07035 6.07667 5.32817 6.02433 5.61723C5.97381 5.89587 6.01209 6.05473 6.05792 6.15369C6.10714 6.25785 6.20323 6.37504 6.39464 6.50265C6.81808 6.78129 7.46391 6.96879 8.30245 7.19535L8.37537 7.21619C9.11495 7.41671 10.0212 7.6641 10.6931 8.10942C11.0603 8.35421 11.4066 8.68494 11.6202 9.14327C11.8363 9.60681 11.8832 10.1276 11.7842 10.6589C11.6019 11.6719 10.8988 12.3334 10.0733 12.6771C9.71912 12.823 9.3285 12.9167 8.91704 12.9636V13.8334C8.91704 14.2943 8.54464 14.6667 8.0837 14.6667C7.62277 14.6667 7.25037 14.2943 7.25037 13.8334V12.9245C7.23995 12.9245 7.22693 12.8985 7.21652 12.9193H7.21131C6.57849 12.8204 5.53344 12.5469 4.82849 12.2344C4.40792 12.0469 4.2186 11.5547 4.40558 11.1329C4.59256 10.7136 5.08501 10.5235 5.48214 10.711C6.04985 10.9532 6.94568 11.1901 7.46391 11.2709C8.29724 11.3959 8.98214 11.323 9.44568 11.1355C9.88579 10.9558 10.0863 10.6954 10.1436 10.3829C10.1931 10.1042 10.1566 9.94535 10.1097 9.8464C10.0603 9.74223 9.96391 9.62504 9.77381 9.49744C9.34933 9.21879 8.7035 9.03129 7.86495 8.80473L7.79204 8.7839C7.05245 8.58337 6.14568 8.33598 5.47329 7.89067C5.10584 7.64587 4.76157 7.31515 4.54777 6.85681C4.33084 6.39327 4.2837 5.87244 4.38448 5.31775C4.56886 4.30473 5.29855 3.65863 6.15558 3.33155C6.49464 3.20212 6.86235 3.11697 7.25037 3.07113V2.16671C7.25037 1.70655 7.62277 1.33337 8.0837 1.33337Z" fill="#B0B8BE"/>
</svg>
