<svg width="15" height="12" viewBox="0 0 15 12" fill="none" xmlns="http://www.w3.org/2000/svg">
<path d="M13.5 12C13.8978 12 14.2794 11.842 14.5607 11.5607C14.842 11.2794 15 10.8978 15 10.5V1.5C15 1.10218 14.842 0.720645 14.5607 0.439341C14.2794 0.158035 13.8978 0 13.5 0H1.5C1.10218 0 0.720644 0.158035 0.43934 0.439341C0.158035 0.720645 0 1.10218 0 1.5V10.5C0 11.325 0.675 12 1.5 12H13.5ZM10.2225 5.175L15 1.5V3L11.16 5.925L15 9V10.5L7.5 4.5L0 10.5V9L3.84 5.925L0 3V1.5L4.7775 5.175L7.5 3L10.2225 5.175Z" fill="#141312"/>
</svg>
