<svg width="13" height="14" viewBox="0 0 13 14" fill="none" xmlns="http://www.w3.org/2000/svg">
<path d="M4.35475 5.60006C3.5974 5.60006 2.87108 5.30506 2.33555 4.77997C1.80003 4.25487 1.49918 3.54268 1.49918 2.80008C1.49918 2.05748 1.80003 1.3453 2.33555 0.820198C2.87108 0.2951 3.5974 0.000102913 4.35475 0.000102913C5.11209 0.000102913 5.83842 0.2951 6.37395 0.820198C6.90947 1.3453 7.21032 2.05748 7.21032 2.80008C7.21032 3.54268 6.90947 4.25487 6.37395 4.77997C5.83842 5.30506 5.11209 5.60006 4.35475 5.60006ZM4.35475 6.30006C5.88962 6.30006 7.3531 6.58005 8.7095 7.06305L7.92422 11.2H7.03185L6.49643 14H2.21307L1.67765 11.2H0.785283L0 7.06305C1.39542 6.56283 2.86901 6.30465 4.35475 6.30006ZM10.2872 6.41906C11.2295 6.54505 12.1362 6.75505 13 7.06305L12.2076 11.2H11.3152L10.7798 14H7.95277L8.21691 12.6H9.10928L10.2872 6.41906ZM8.63811 0.000102913C9.05599 -0.00341 9.46956 0.0830513 9.84963 0.253384C10.2297 0.423717 10.567 0.673771 10.8378 0.985896C11.1085 1.29802 11.3061 1.66461 11.4166 2.05979C11.5271 2.45497 11.5477 2.86911 11.4771 3.27298C11.4065 3.67684 11.2464 4.0606 11.008 4.39715C10.7696 4.73371 10.4588 5.01486 10.0975 5.22076C9.73624 5.42667 9.33326 5.55231 8.91703 5.58882C8.5008 5.62533 8.08147 5.57182 7.68863 5.43206C8.30546 4.68822 8.64219 3.75878 8.64219 2.80008C8.64219 1.84139 8.30546 0.911941 7.68863 0.168102C7.99561 0.0701024 8.30258 0.000102913 8.63811 0.000102913Z" fill="#141312"/>
</svg>
