<svg width="14" height="14" viewBox="0 0 14 14" fill="none" xmlns="http://www.w3.org/2000/svg">
<path d="M13.5 12.4275V12.85C13.5 13.0224 13.4315 13.1877 13.3096 13.3096C13.1877 13.4315 13.0224 13.5 12.85 13.5H11.55C8.61936 13.5 5.80875 12.3358 3.73647 10.2635C1.66419 8.19125 0.5 5.38064 0.5 2.45L0.5 1.15C0.5 0.977609 0.568482 0.812279 0.690381 0.690381C0.812279 0.568482 0.977609 0.5 1.15 0.5H3.75C3.92239 0.5 4.08772 0.568482 4.20962 0.690381C4.33152 0.812279 4.4 0.977609 4.4 1.15V3.75C4.4 4.114 4.1985 4.6015 3.945 4.855L2.554 6.246C3.542 8.586 5.414 10.458 7.754 11.446L9.132 10.068C9.392 9.808 9.8795 9.6065 10.237 9.6065H12.85C13.0213 9.60821 13.1849 9.67745 13.3054 9.79916C13.4259 9.92088 13.4935 10.0852 13.4935 10.2565V12.434L13.5 12.4275Z" fill="#141312"/>
</svg>
