<svg width="14" height="14" viewBox="0 0 14 14" fill="none" xmlns="http://www.w3.org/2000/svg">
<path d="M7 13.5C5.27609 13.5 3.62279 12.8152 2.40381 11.5962C1.18482 10.3772 0.5 8.72391 0.5 7C0.5 5.27609 1.18482 3.62279 2.40381 2.40381C3.62279 1.18482 5.27609 0.5 7 0.5C8.72391 0.5 10.3772 1.18482 11.5962 2.40381C12.8152 3.62279 13.5 5.27609 13.5 7C13.5 8.72391 12.8152 10.3772 11.5962 11.5962C10.3772 12.8152 8.72391 13.5 7 13.5ZM7 12.2C8.37913 12.2 9.70177 11.6521 10.677 10.677C11.6521 9.70177 12.2 8.37913 12.2 7C12.2 5.62087 11.6521 4.29823 10.677 3.32304C9.70177 2.34786 8.37913 1.8 7 1.8C5.62087 1.8 4.29823 2.34786 3.32304 3.32304C2.34786 4.29823 1.8 5.62087 1.8 7C1.8 8.37913 2.34786 9.70177 3.32304 10.677C4.29823 11.6521 5.62087 12.2 7 12.2ZM6.35 7.2665V3.1H7.65V6.7335L10.2175 9.301L9.301 10.2175L6.35 7.2665Z" fill="#141312"/>
</svg>
