<svg width="14" height="16" viewBox="0 0 14 16" fill="none" xmlns="http://www.w3.org/2000/svg">
<path id="Vector" d="M2.33333 6.49335C2.33291 5.55768 2.63451 4.64511 3.19624 3.88246C3.75797 3.1198 4.55192 2.54492 5.46778 2.23771C5.43231 2.02329 5.44547 1.80399 5.50636 1.59495C5.56724 1.38591 5.6744 1.1921 5.82043 1.0269C5.96646 0.861702 6.1479 0.729042 6.35222 0.638076C6.55654 0.547109 6.77887 0.5 7.00389 0.5C7.2289 0.5 7.45124 0.547109 7.65556 0.638076C7.85988 0.729042 8.04131 0.861702 8.18735 1.0269C8.33338 1.1921 8.44054 1.38591 8.50142 1.59495C8.5623 1.80399 8.57547 2.02329 8.54 2.23771C9.4544 2.54618 10.2467 3.1216 10.8069 3.88415C11.3672 4.6467 11.6677 5.55859 11.6667 6.49335V10.9967L14 12.4978V13.2483H0V12.4978L2.33333 10.9967V6.49335ZM8.55556 13.9989C8.55556 14.397 8.39167 14.7788 8.09994 15.0603C7.80822 15.3418 7.41256 15.5 7 15.5C6.58744 15.5 6.19178 15.3418 5.90006 15.0603C5.60833 14.7788 5.44444 14.397 5.44444 13.9989H8.55556Z" fill="white"/>
</svg>
