<svg width="23" height="24" viewBox="0 0 23 24" fill="none" xmlns="http://www.w3.org/2000/svg">
<path d="M4.16667 9.68981C4.166 8.25511 4.63995 6.85584 5.52266 5.68643C6.40538 4.51702 7.65302 3.63555 9.09222 3.16449C9.03649 2.8357 9.05717 2.49945 9.15285 2.17892C9.24852 1.85839 9.41691 1.56122 9.64639 1.30791C9.87587 1.05461 10.161 0.851198 10.4821 0.711716C10.8031 0.572233 11.1525 0.5 11.5061 0.5C11.8597 0.5 12.2091 0.572233 12.5302 0.711716C12.8512 0.851198 13.1364 1.05461 13.3658 1.30791C13.5953 1.56122 13.7637 1.85839 13.8594 2.17892C13.955 2.49945 13.9757 2.8357 13.92 3.16449C15.3569 3.63748 16.6019 4.51978 17.4823 5.68903C18.3627 6.85827 18.8349 8.25651 18.8333 9.68981V16.5949L22.5 18.8966V20.0475H0.5V18.8966L4.16667 16.5949V9.68981ZM13.9444 21.1983C13.9444 21.8088 13.6869 22.3942 13.2285 22.8258C12.7701 23.2575 12.1483 23.5 11.5 23.5C10.8517 23.5 10.2299 23.2575 9.77152 22.8258C9.3131 22.3942 9.05556 21.8088 9.05556 21.1983H13.9444Z" fill="white"/>
</svg>
