<svg width="16" height="16" viewBox="0 0 16 16" fill="none" xmlns="http://www.w3.org/2000/svg">
<path d="M2.66667 6.39291C2.66618 5.39486 3.01087 4.42146 3.65285 3.60795C4.29482 2.79445 5.2022 2.18125 6.24889 1.85356C6.20836 1.62484 6.2234 1.39092 6.29298 1.16794C6.36256 0.944966 6.48502 0.73824 6.65192 0.562028C6.81881 0.385815 7.02617 0.244312 7.25968 0.147281C7.49318 0.0502492 7.74728 0 8.00445 0C8.26161 0 8.51571 0.0502492 8.74921 0.147281C8.98272 0.244312 9.19007 0.385815 9.35697 0.562028C9.52386 0.73824 9.64633 0.944966 9.71591 1.16794C9.78549 1.39092 9.80053 1.62484 9.76 1.85356C10.805 2.18259 11.7105 2.79637 12.3508 3.60976C12.9911 4.42314 13.3345 5.39583 13.3333 6.39291V11.1965L16 12.7976V13.5982H0V12.7976L2.66667 11.1965V6.39291ZM9.77778 14.3988C9.77778 14.8235 9.59048 15.2307 9.25708 15.531C8.92368 15.8313 8.4715 16 8 16C7.5285 16 7.07632 15.8313 6.74292 15.531C6.40952 15.2307 6.22222 14.8235 6.22222 14.3988H9.77778Z" fill="white"/>
</svg>
