<svg width="37" height="39" viewBox="0 0 37 39" fill="none" xmlns="http://www.w3.org/2000/svg">
<path d="M6.5 15.5827C6.49891 13.15 7.27446 10.7773 8.71891 8.79439C10.1633 6.81148 12.2049 5.3168 14.56 4.51805C14.4688 3.96054 14.5026 3.39037 14.6592 2.84686C14.8158 2.30336 15.0913 1.79946 15.4668 1.36994C15.8423 0.940425 16.3089 0.59551 16.8343 0.358996C17.3597 0.122482 17.9314 0 18.51 0C19.0886 0 19.6603 0.122482 20.1857 0.358996C20.7111 0.59551 21.1777 0.940425 21.5532 1.36994C21.9287 1.79946 22.2042 2.30336 22.3608 2.84686C22.5174 3.39037 22.5512 3.96054 22.46 4.51805C24.8113 5.32007 26.8486 6.81615 28.2892 8.79878C29.7299 10.7814 30.5025 13.1523 30.5 15.5827V27.2914L36.5 31.1942V33.1457H0.5V31.1942L6.5 27.2914V15.5827ZM22.5 35.0971C22.5 36.1322 22.0786 37.1249 21.3284 37.8569C20.5783 38.5888 19.5609 39 18.5 39C17.4391 39 16.4217 38.5888 15.6716 37.8569C14.9214 37.1249 14.5 36.1322 14.5 35.0971H22.5Z" fill="white"/>
</svg>
