<svg width="24" height="24" viewBox="0 0 24 24" fill="none" xmlns="http://www.w3.org/2000/svg">
<path d="M4 9.58936C3.99927 8.09229 4.51631 6.63218 5.47927 5.41193C6.44223 4.19168 7.80329 3.27188 9.37333 2.78034C9.31253 2.43726 9.3351 2.08638 9.43947 1.75191C9.54384 1.41745 9.72754 1.10736 9.97788 0.843042C10.2282 0.578723 10.5393 0.366468 10.8895 0.220921C11.2398 0.0753738 11.6209 0 12.0067 0C12.3924 0 12.7736 0.0753738 13.1238 0.220921C13.4741 0.366468 13.7851 0.578723 14.0355 0.843042C14.2858 1.10736 14.4695 1.41745 14.5739 1.75191C14.6782 2.08638 14.7008 2.43726 14.64 2.78034C16.2076 3.27389 17.5657 4.19455 18.5262 5.41464C19.4866 6.63472 20.0017 8.09375 20 9.58936V16.7947L24 19.1965V20.3973H0V19.1965L4 16.7947V9.58936ZM14.6667 21.5982C14.6667 22.2352 14.3857 22.8461 13.8856 23.2965C13.3855 23.747 12.7072 24 12 24C11.2928 24 10.6145 23.747 10.1144 23.2965C9.61429 22.8461 9.33333 22.2352 9.33333 21.5982H14.6667Z" fill="white"/>
</svg>
